PathFileType	4	(X/Y/Z)	Kaydara	
DataRate	CameraRate	NumFrames	NumMarkers	Units	OrigDataRate	OrigDataStartFrame	OrigNumFrames	
120.00	120.00	4	72	mm	120.00	101	268	
Frame#	Time	Hips			RightUpLeg			RightLeg			RightFoot			RightFoot_End			LeftUpLeg			LeftLeg			LeftFoot			LeftFoot_End			Spine			Spine1			Spine2			Spine3			Neck			Head			Head_End			RightShoulder			RightArm			RightForeArm			RightHand			RightHandThumb1			RightHandThumb2			RightHandThumb3			RightHandThumb3_End			RightInHandIndex			RightHandIndex1			RightHandIndex2			RightHandIndex3			RightHandIndex3_End			RightInHandMiddle			RightHandMiddle1			RightHandMiddle2			RightHandMiddle3			RightHandMiddle3_End			RightInHandRing			RightHandRing1			RightHandRing2			RightHandRing3			RightHandRing3_End			RightInHandPinky			RightHandPinky1			RightHandPinky2			RightHandPinky3			RightHandPinky3_End			LeftShoulder			LeftArm			LeftForeArm			LeftHand			LeftHandThumb1			LeftHandThumb2			LeftHandThumb3			LeftHandThumb3_End			LeftInHandIndex			LeftHandIndex1			LeftHandIndex2			LeftHandIndex3			LeftHandIndex3_End			LeftInHandMiddle			LeftHandMiddle1			LeftHandMiddle2			LeftHandMiddle3			LeftHandMiddle3_End			LeftInHandRing			LeftHandRing1			LeftHandRing2			LeftHandRing3			LeftHandRing3_End			LeftInHandPinky			LeftHandPinky1			LeftHandPinky2			LeftHandPinky3			LeftHandPinky3_End			
		X1	Y1	Z1	X2	Y2	Z2	X3	Y3	Z3	X4	Y4	Z4	X5	Y5	Z5	X6	Y6	Z6	X7	Y7	Z7	X8	Y8	Z8	X9	Y9	Z9	X10	Y10	Z10	X11	Y11	Z11	X12	Y12	Z12	X13	Y13	Z13	X14	Y14	Z14	X15	Y15	Z15	X16	Y16	Z16	X17	Y17	Z17	X18	Y18	Z18	X19	Y19	Z19	X20	Y20	Z20	X21	Y21	Z21	X22	Y22	Z22	X23	Y23	Z23	X24	Y24	Z24	X25	Y25	Z25	X26	Y26	Z26	X27	Y27	Z27	X28	Y28	Z28	X29	Y29	Z29	X30	Y30	Z30	X31	Y31	Z31	X32	Y32	Z32	X33	Y33	Z33	X34	Y34	Z34	X35	Y35	Z35	X36	Y36	Z36	X37	Y37	Z37	X38	Y38	Z38	X39	Y39	Z39	X40	Y40	Z40	X41	Y41	Z41	X42	Y42	Z42	X43	Y43	Z43	X44	Y44	Z44	X45	Y45	Z45	X46	Y46	Z46	X47	Y47	Z47	X48	Y48	Z48	X49	Y49	Z49	X50	Y50	Z50	X51	Y51	Z51	X52	Y52	Z52	X53	Y53	Z53	X54	Y54	Z54	X55	Y55	Z55	X56	Y56	Z56	X57	Y57	Z57	X58	Y58	Z58	X59	Y59	Z59	X60	Y60	Z60	X61	Y61	Z61	X62	Y62	Z62	X63	Y63	Z63	X64	Y64	Z64	X65	Y65	Z65	X66	Y66	Z66	X67	Y67	Z67	X68	Y68	Z68	X69	Y69	Z69	X70	Y70	Z70	X71	Y71	Z71	X72	Y72	Z72	

101	0.833	4446.805	859.65103	-201.189	4520.208871545154	852.2125091149237	-233.57199091799188	4399.288609401813	456.86016527663554	-277.85156518856735	4449.6750195135255	52.87960735363514	-357.7763483651153	4389.815730557189	-31.41014493862465	-205.32810065689603	4382.074497725819	839.0422709105591	-155.01396002002178	4259.893335431566	444.57642003993755	-88.34681256078031	4198.57486427415	68.71754838687063	80.19643089640752	4240.359478224106	22.06268264954489	258.4864623943136	4404.390937457386	982.604472531651	-259.5571013745669	4353.16278261334	1050.5085962535234	-305.4302970082435	4293.648275932311	1115.5924763838875	-353.40584783447207	4228.633789007514	1169.2303855396615	-399.74094594740234	4158.307278480751	1226.7506414891443	-445.6136496042889	4116.2737973262365	1299.59422660172	-403.01041862854674	4092.8295236763206	1386.6000644750943	-272.29095830353674	4197.419783328384	1213.9504296676594	-447.0534438870747	4263.168868433061	1217.6622479731243	-511.2558438524073	4344.186178903689	1021.7309937730728	-516.8243935357925	4426.698137669747	959.8222727621959	-599.2204447378907	4430.980902114425	972.2368413133665	-608.3106371046122	4426.480016957926	978.6265979555548	-623.388273890465	4424.478129338965	980.6051754030641	-633.4716403191418	4423.778098324678	980.1405487417911	-641.5212174388031	4436.819148710898	964.4739141840491	-607.0534780681187	4450.48674581193	962.6040170916388	-620.0665764716839	4452.597398343309	961.5334969680976	-632.3133593609351	4447.864252328783	963.1527533075548	-641.0083709503645	4439.868858128506	966.034182717454	-648.9345289639119	4439.071973297578	957.8285758594213	-605.6188388475613	4453.62360808625	952.4102031449007	-617.5345152403696	4456.1704253886965	950.3715684906057	-630.6706686340349	4450.576973722362	951.9074284707702	-641.0517054319629	4441.885396988262	954.8571687952211	-649.6712796437773	4440.400090442114	953.1624906461261	-604.2406523587936	4454.84363503549	944.200841342106	-613.6279268144528	4457.288641162437	941.5429812934836	-624.826478584215	4452.012887628203	942.5565997381221	-634.7065344701062	4443.897271610493	945.1084040992889	-642.7479533538522	4440.8631290327685	947.9873943080989	-602.531521812769	4454.6866631890625	936.51347548541	-609.9828318538138	4456.9322341039715	933.0499572026616	-618.517977853185	4453.22324767126	933.1434176514415	-625.5154438926863	4446.114222085837	935.0321878746496	-632.518499663187	4165.358730632874	1204.0613607117843	-412.0841116762733	4120.161872625151	1147.4204427385291	-350.40486558002794	4213.271318222966	1030.0727462556601	-492.1435236685964	4373.2237449994955	983.4685309351718	-475.62350949240056	4370.10830938467	998.0110455931114	-480.90168830589283	4377.346728210516	998.6653087585951	-502.96857398726985	4382.577420656892	996.8550588011491	-520.2260443997671	4387.100452836075	993.4075356932399	-536.2297701820484	4369.452949513703	992.0983076402398	-487.2156941246576	4368.942752503915	993.0904970151212	-516.0388539593404	4374.197040560818	989.1041294374652	-541.1485602324551	4380.427536203879	985.8274475635986	-555.7558761468482	4387.583764571905	982.5768238850908	-567.1695446443335	4370.253718836093	985.6786638127371	-491.5933268119438	4370.187627415593	983.1753613928322	-522.0729970478142	4376.0354269079035	977.9693288480521	-549.9631176186421	4383.607158531062	973.6053069448351	-567.8216497248364	4391.464043106643	969.848815975536	-580.4246705512792	4370.776668572421	981.1507390616608	-493.91740252833506	4371.008085055721	975.0729006771803	-523.1535925719854	4376.222618292898	969.6638402560727	-547.9163315635274	4383.588599198789	964.9916031172544	-565.3831957337526	4391.005640585503	961.2402433119935	-577.3473628000551	4371.833885006262	975.6443537531828	-496.0225465498863	4372.510450397357	966.7857530250238	-524.0335167956972	4376.8688779094	961.1210667875222	-544.4430312911302	4382.3300948046335	957.0681486166509	-557.4642059653713	4388.951287553016	953.3738690319184	-568.2241007540579
102	0.842	4446.805	859.65103	-201.189	4519.846999941796	852.1200755559597	-233.4642280796701	4399.370437186625	456.7100695185492	-277.87022917426225	4449.9202172658	53.1210096979278	-358.21756904687373	4390.598269908234	-31.31201367734871	-205.9802256014519	4382.393208432145	839.1225225346683	-155.12121033145138	4260.42782844123	444.71211078571764	-87.780328307316	4198.72431795793	69.10734539981533	81.12625650034569	4240.573351910973	22.444572384466017	259.3689200563623	4404.601643764918	982.6636503399529	-259.5655358430712	4353.487111575871	1050.682180979161	-305.3835963384223	4294.096411376714	1115.9125565000534	-353.29417913278076	4229.206132349043	1169.7351410665553	-399.56066624655415	4159.016673936882	1227.456798933585	-445.35329066173784	4117.112260414616	1300.3921037316882	-402.7990797116734	4093.72097556279	1387.5556936004416	-272.1945734362477	4198.000356976722	1214.6066962738903	-446.68952549631564	4263.490073309001	1218.5675429740506	-510.3843015369772	4345.341342473737	1023.5142628630138	-515.7938181979302	4428.422421381548	963.8735832635026	-598.3458345910035	4432.701701708201	976.7605163095634	-607.1050277144035	4428.378639112149	983.5909202132852	-622.033467292156	4426.519429983546	985.8605863088934	-632.0616411991348	4425.954462290983	985.625130612101	-640.1068748503251	4438.595289553307	968.9905848994298	-605.9849159989159	4452.463492981346	967.7464581744916	-618.913400170442	4454.777217034263	967.0782150659089	-631.139702410539	4450.174244983218	968.893639074195	-639.8099492325757	4442.289241469342	971.9010610099457	-647.7074930709638	4440.895395858581	962.2789756995012	-604.687525149269	4455.668252572256	957.4351244124376	-616.5948979756257	4458.442329003372	955.8246386237594	-629.7271354393501	4453.008646063366	957.5919774141425	-640.0871389749171	4444.4391796192685	960.6770527264665	-648.6797039563986	4442.25131720016	957.5504600908264	-603.4083754164928	4456.915848258141	949.0505512117174	-612.8739211184014	4459.564383296418	946.7539034242149	-624.0879129491294	4454.445633614266	947.9844476263171	-633.9576926492907	4446.446203094538	950.6604900898031	-641.9784610142133	4442.744381458472	952.2824559044482	-601.8165374475168	4456.787564011068	941.1761702705323	-609.4116242563982	4459.203654930391	937.9812159413972	-617.9882072122718	4455.612835209972	938.2228991855636	-624.9922411088489	4448.60883076493	940.2159663532918	-631.9850971469298	4166.101949026839	1204.6696371419202	-411.9876545988547	4121.10566665882	1148.1345207685313	-350.91548134857356	4214.338243826595	1031.802755257221	-492.1122005740391	4373.903308023777	986.889221468574	-475.45679791324176	4371.132217665781	1001.6642031171644	-480.63619029808365	4378.415677170612	1002.3490740708214	-502.59062598804456	4383.628787009447	1000.5629138846691	-519.7773662294568	4388.095286360774	997.1378465506222	-535.7286112038754	4370.352371908577	995.8086765221788	-486.97062274386354	4369.912633448091	997.1415281274695	-515.6920980517235	4375.112371455614	993.2536838845899	-540.718657865535	4381.286502276436	989.9335110404796	-555.2691999363126	4388.380934308729	986.5762392514043	-566.6324492390235	4371.012630524874	989.378135871256	-491.3718218536492	4370.93928991681	987.2012517868119	-521.7650625726515	4376.708666471686	982.1000108112958	-549.5678777611873	4384.20332753776	977.6822160156084	-567.3595574830214	4391.988186792031	973.8083983485237	-579.9082093231688	4371.435257608311	984.8353125174956	-493.71529754167665	4371.575272041129	979.0414436656791	-522.8913231253957	4376.702138607994	973.7204137827358	-547.581600517009	4383.98352295557	968.9945520005417	-564.9859100517889	4391.327981859098	965.1320432111083	-576.8998710837232	4372.368929550198	979.2901272818077	-495.8445247807162	4372.888022878382	970.673180422612	-523.8156470206906	4377.146513324829	965.0725771592035	-544.1730680604758	4382.531640908737	960.9774451129058	-557.1514845014107	4389.080259557204	957.1829213574524	-567.8685560684407
103	0.85	4446.805	859.65103	-201.189	4519.483932685642	852.0371163187152	-233.35031502758508	4399.403445774732	456.5869742600933	-277.9049130339385	4450.12197449043	53.38940707801422	-358.6626912856506	4391.334329890043	-31.194188556173575	-206.64336411054973	4382.715387707582	839.1937510649709	-155.23520987625383	4260.958299388361	444.8311345173395	-87.28231770052194	4198.915439106188	69.4384645402656	81.92000314445485	4240.8434462802525	22.773613225305972	260.1132943158381	4404.802504171843	982.7202814415016	-259.5717289933503	4353.797897039594	1050.8495929775527	-305.33600415253653	4294.526923647763	1116.2209692542065	-353.18365218821776	4229.757930029895	1170.2222448078014	-399.3840132136918	4159.702397636858	1228.139080787939	-445.09906112183756	4117.928709654744	1301.167104485821	-402.5964716017082	4094.6024838371336	1388.4931061674147	-272.10754015738814	4198.556438156001	1215.2383406369213	-446.33424495542164	4263.780451943307	1219.4369220888852	-509.5199908870743	4346.455644244086	1025.2611049701804	-514.7417546510544	4430.039761634738	967.7770407748645	-597.41869047653	4434.3111283593935	981.1282126499895	-605.8560237134182	4430.155954866419	988.3823514661783	-620.6363003523321	4428.431914052937	990.9313766258095	-630.6080784360711	4427.995241300434	990.9153541432972	-638.6463208515145	4440.25779643755	973.3514727135545	-604.8672115648264	4454.313012086456	972.7178421768773	-617.7078018119455	4456.8189028434035	972.4371362817586	-629.9097001618998	4452.340070052469	974.4384544246689	-638.5536635596404	4444.560965013881	977.5626167117802	-646.4219568903849	4442.60397699456	966.5740593925728	-603.701874740722	4457.58414321177	962.2900850967209	-615.594936064249	4460.573462586872	961.0917701215411	-628.7182997117851	4455.29221182075	963.0782439778919	-639.055112820589	4446.839912891187	966.2885553545161	-647.6198147221106	4443.987204201374	961.7838719816394	-602.5181793948883	4458.859844771703	953.733351648506	-612.0535118829985	4461.701337477887	951.7841207262121	-623.2779402550161	4456.732462842578	953.2197535900083	-633.1350006707584	4448.844545844126	956.0105714870485	-641.134143741691	4444.510050278664	956.4239695164829	-601.0395727560829	4458.760942497969	945.6747362632435	-608.768161054315	4461.338991943424	942.7375570429598	-617.3811468866986	4457.861092508054	943.1189535296194	-624.389469653429	4450.9579439802665	945.208007218657	-631.3709764610445	4166.824577484214	1205.259339997538	-411.8935840909641	4122.03466505011	1148.8375283115981	-351.42246688037676	4215.37210364424	1033.4950158709096	-492.05981516239194	4374.501796641029	990.2399555000106	-475.20319090027687	4372.066639195404	1005.2496445739228	-480.2655656497637	4379.405525273522	1005.9855782880891	-502.09449592307755	4384.611758326895	1004.2382632989687	-519.2029599258116	4389.033620270386	1000.848389222312	-535.0967555317545	4371.1731513913965	999.4517210460792	-486.6239841263341	4370.824078341589	1001.1382665697698	-515.2284216558594	4375.987779840888	997.3667907127619	-540.1627983391452	4382.115102454059	994.0176118419712	-554.6517856319215	4389.154330189742	990.5679680805853	-565.9612225595537	4371.70185333065	993.0116349576977	-491.05356649361806	4371.645814379595	991.174608409274	-521.3480072671865	4377.35809126331	986.1977783463902	-549.0543438250595	4384.787749451157	981.7437566891406	-566.7737326380347	4392.508058048227	977.7682671687747	-579.2644636245535	4372.029949338795	988.4544520972266	-493.4202271105891	4372.105537960073	982.9568212100864	-522.5282593941802	4377.164431054105	977.7410524031338	-547.1388019873688	4384.37344727506	972.9785593888788	-564.4756945485423	4391.652630748775	969.0196539984021	-576.336291434928	4372.846312366524	982.8713656461257	-495.5784213639605	4373.23646454895	974.5076047455152	-523.5054881476791	4377.412398407182	968.9850319172032	-543.8061524882506	4382.731135288013	964.8601535522162	-556.7388257075161	4389.21410086442	960.978495621256	-567.4105996657495
104	0.858	4446.805	859.65103	-201.189	4519.118953803899	851.9623858762639	-233.2345903627599	4399.393299639873	456.486695919974	-277.94819158587006	4450.292756289647	53.682098790115205	-359.1089735200358	4392.037647474686	-31.05971060676819	-207.31391251952562	4383.0420915241175	839.2572840704146	-155.3516468245599	4261.477557979687	444.93677831656544	-86.85213655009242	4199.142035198391	69.7124974246673	82.57507462913783	4241.16570076021	23.047840689974667	260.71595262085833	4404.992071231362	982.7740819996944	-259.57529772705595	4354.092820280123	1051.0102151734263	-305.28669853856763	4294.936732023943	1116.5169144493561	-353.07288486841907	4230.285257728462	1170.6905259408497	-399.20894847901747	4160.3595158134085	1228.7957247082009	-444.8482527927689	4118.713714797195	1301.9150429003228	-402.399441106418	4095.462237703938	1389.404220068803	-272.02483204591624	4199.083113731239	1215.8428642351666	-445.9863707756022	4264.032914106765	1220.2642800266563	-508.6644473257512	4347.51150742126	1026.958756070443	-513.6630474815192	4431.518950487869	971.5017852248326	-596.4267102551306	4435.781329323171	985.3028985107446	-604.5554925125807	4431.785077570484	992.9577668214503	-619.1908913556429	4430.188679398958	995.7701218175567	-629.1060111669307	4429.872931639716	995.9601621589799	-637.1348627038418	4441.776716500056	977.5186362251565	-603.6904157748075	4456.0044600087795	977.4698071701483	-616.440897277251	4458.6906779046785	977.5554007040805	-628.6149545206385	4454.329825127231	979.7295678738097	-637.2317058726637	4446.652331285904	982.9597797527953	-645.0707949693289	4444.165908007714	970.676130594362	-602.6501848481512	4459.33759932902	966.9273573329782	-614.5230168195156	4462.528883033311	966.118211594969	-627.6328439098728	4457.392461334561	968.3081651615853	-637.9449084858013	4449.052554826809	971.6320553034437	-646.4815854572627	4445.574652891375	965.8254589144345	-601.5570939632747	4460.6397242821095	958.2033278526064	-611.1527054596828	4463.66225834071	956.5816811227394	-622.3825835754595	4458.835742854231	958.2074161508981	-632.2249317352329	4451.05476346468	961.1021028194833	-640.2020648949683	4446.125587650969	960.3755435474138	-600.1861758883296	4460.568782422128	949.9653532254018	-608.0361344489851	4463.298782162012	947.2704954069309	-616.6801317223149	4459.928095472023	947.7808804530505	-623.6906133690784	4453.121619771183	949.9563782960009	-630.6600410173402	4167.522480343352	1205.8299359930672	-411.7982051507901	4122.947394221735	1149.5309858760613	-351.9155896318027	4216.365518541108	1035.136989544807	-491.97161893120096	4375.008286856656	993.4856744991341	-474.855221135376	4372.895927743111	1008.7303977240653	-479.7852445979479	4380.299884320022	1009.5365295566346	-501.47585182021453	4385.510017312694	1007.8415558268882	-518.4982570445826	4389.8996991623335	1004.4982715144754	-534.329093663248	4371.90103188907	1002.9888553164744	-486.1702143209578	4371.661145124328	1005.0364180771718	-514.6428936007187	4376.807663189059	1001.3963481828437	-539.4755230740271	4382.898427810025	998.0322624841089	-553.8975938798662	4389.889942898305	994.5051207003988	-565.149174052166	4372.3088600856545	996.5399036697269	-490.6318352076725	4372.29396393698	995.0502424605243	-520.8150948525845	4377.971070421736	990.2143105774779	-548.4150474463949	4385.348743239301	985.7411097407111	-566.0559310896663	4393.0130150940495	981.6802413582276	-578.4844402402747	4372.549469260298	991.9685564121974	-493.02463626031425	4372.588024965198	986.7737732453046	-522.056138155029	4377.599407936867	981.6777054206266	-546.5788746282124	4384.749329142976	976.8950617169128	-563.8426546173653	4391.971582268554	972.8550968500718	-575.6459846373367	4373.256344946527	986.3483560952169	-495.2156492773212	4373.5474064817545	978.244001618727	-523.0931921307451	4377.659156652896	972.8111022657321	-543.3315507719863	4382.92214517598	968.6685372850205	-556.2147686641039	4389.347402848128	964.7133537070008	-566.838042336014
